<svg width="32" height="32" viewBox="0 0 32 32" fill="none" xmlns="http://www.w3.org/2000/svg">
<path d="M25.237 0H6.763C3.0279 0 0 3.02784 0 6.76294V25.2369C0 28.972 3.0279 32 6.763 32H25.237C28.9721 32 32 28.972 32 25.2369V6.76294C32 3.02784 28.9721 0 25.237 0Z" fill="url(#paint0_linear_29_1221)"/>
<path d="M12.5 9C12.3674 9 12.2402 9.05268 12.1464 9.14645C12.0527 9.24021 12 9.36739 12 9.5V22.5C12 22.5876 12.023 22.6736 12.0668 22.7494C12.1105 22.8253 12.1733 22.8884 12.2491 22.9323C12.3248 22.9763 12.4108 22.9995 12.4983 22.9998C12.5859 23.0001 12.672 22.9774 12.748 22.934L16 21.074L19.252 22.934C19.328 22.9774 19.4141 23.0001 19.5017 22.9998C19.5892 22.9995 19.6752 22.9763 19.7509 22.9323C19.8267 22.8884 19.8895 22.8253 19.9332 22.7494C19.977 22.6736 20 22.5876 20 22.5V9.5C20 9.36739 19.9473 9.24021 19.8536 9.14645C19.7598 9.05268 19.6326 9 19.5 9H12.5ZM13 10H19V21.637L16.248 20.064C16.1725 20.0209 16.087 19.9982 16 19.9982C15.913 19.9982 15.8275 20.0209 15.752 20.064L13 21.637V10Z" fill="white"/>
<defs>
<linearGradient id="paint0_linear_29_1221" x1="2.0887" y1="0.426884" x2="29.8881" y2="31.059" gradientUnits="userSpaceOnUse">
<stop stop-color="#FF1679"/>
<stop offset="1" stop-color="#FF770B"/>
</linearGradient>
</defs>
</svg>
